# xmcd CD database file
#
# Track frame offsets:
#	150
#	16607
#	32532
#	44772
#	58432
#	72835
#	84717
#	102300
#	113235
#	132617
#	144367
#	158865
#	171897
#	184705
#	197617
#	211455
#	228267
#	240497
#	256347
#	272822
#	284537
#	298805
#	315540
#	330552
#
# Disc length: 4564 seconds
#
# Revision: 0
# Processed by: cddbd v1.5.1PL0 Copyright (c) Steve Scherf et al.
# Submitted via: CDex 1.40Release
#
DISCID=6a11d218
DTITLE=John Brack - Beautiful Country
DYEAR=1994
DGENRE=Country
TTITLE0=Green green grass of home
TTITLE1=Disco girl
TTITLE2=Es Praline
TTITLE3=Private angel
TTITLE4=Strong feelings
TTITLE5=Keep your hands away
TTITLE6=Lucille
TTITLE7=Oh lonesome me
TTITLE8=Borderline
TTITLE9=Feel so good
TTITLE10=Some old dreams
TTITLE11=I'm always gonna love you
TTITLE12=Heartaches by the number
TTITLE13=Last chance for a lonely heart
TTITLE14=Good morning country
TTITLE15=Loving you
TTITLE16=Riib mi ii
TTITLE17=another sad story
TTITLE18=Grandma
TTITLE19=Why can't you be on time
TTITLE20=We can talk it over
TTITLE21=Some broken hearts never mend
TTITLE22='Cause you still love me
TTITLE23=Yes I do
EXTD=YEAR: 1994 ID3G: 2
EXTT0=
EXTT1=
EXTT2=
EXTT3=
EXTT4=
EXTT5=
EXTT6=
EXTT7=
EXTT8=
EXTT9=
EXTT10=
EXTT11=
EXTT12=
EXTT13=
EXTT14=
EXTT15=
EXTT16=
EXTT17=
EXTT18=
EXTT19=
EXTT20=
EXTT21=
EXTT22=
EXTT23=
PLAYORDER=
